<?xml version="1.0" standalone="no"?>
<!DOCTYPE svg PUBLIC "-//W3C//DTD SVG 20010904//EN"
 "http://www.w3.org/TR/2001/REC-SVG-20010904/DTD/svg10.dtd">
<svg version="1.0" xmlns="http://www.w3.org/2000/svg"
 width="258.000000pt" height="56.000000pt" viewBox="0 0 258.000000 56.000000"
 preserveAspectRatio="xMidYMid meet">

<g transform="translate(0.000000,56.000000) scale(0.100000,-0.100000)"
fill="#000000" stroke="none">
<path d="M400 522 c92 -18 85 -12 89 -85 1 -11 15 -24 36 -33 39 -16 39 -21 8
-134 -27 -100 -92 -184 -178 -228 -22 -12 -34 -21 -27 -22 26 0 89 40 129 83
53 58 81 113 99 196 20 97 19 105 -18 116 -31 9 -33 13 -32 52 1 41 -1 43 -35
53 -20 6 -63 12 -96 15 -57 5 -55 4 25 -13z"/>
<path d="M320 460 c0 -13 9 -24 24 -30 29 -11 46 -38 46 -74 0 -16 6 -26 15
-26 12 0 15 -16 15 -80 l0 -80 -50 0 -50 0 0 -45 0 -46 28 15 c42 22 99 86
122 138 25 57 38 138 21 138 -20 0 -51 39 -51 65 0 26 -3 27 -82 40 -34 5 -38
4 -38 -15z"/>
<path d="M709 387 c-64 -43 -64 -141 0 -184 38 -25 83 -29 120 -10 37 19 41
42 5 33 -75 -18 -81 -18 -109 7 -22 19 -29 33 -29 62 0 29 7 43 29 62 28 25
34 25 109 7 36 -9 32 14 -5 33 -37 19 -82 15 -120 -10z"/>
<path d="M1564 397 c-2 -7 -3 -58 -2 -113 3 -85 5 -99 21 -102 14 -3 17 4 17
42 l0 46 56 0 c47 0 55 3 52 18 -2 13 -15 18 -56 20 l-52 3 0 35 0 34 66 0
c48 0 65 3 62 13 -7 18 -157 22 -164 4z"/>
<path d="M320 365 c0 -28 4 -35 20 -35 23 0 28 38 8 58 -20 20 -28 14 -28 -23z"/>
<path d="M1430 379 c0 -7 -8 -18 -17 -25 -17 -13 -17 -15 0 -28 12 -9 17 -27
17 -63 0 -57 23 -87 62 -81 32 4 38 39 6 36 -21 -3 -23 1 -26 49 -3 47 -1 52
20 55 28 4 31 31 3 36 -11 3 -24 10 -28 18 -10 17 -37 19 -37 3z"/>
<path d="M907 353 c-4 -3 -7 -44 -7 -90 0 -75 2 -84 18 -81 13 2 18 17 22 68
4 55 8 65 25 68 29 6 41 20 28 33 -8 8 -17 8 -31 0 -14 -7 -23 -8 -27 -1 -7
12 -19 13 -28 3z"/>
<path d="M1015 351 c-3 -5 11 -44 30 -86 39 -87 36 -118 -12 -113 -14 2 -28
-2 -30 -9 -6 -16 45 -29 66 -17 19 11 110 190 110 217 1 35 -24 11 -54 -52
l-30 -62 -29 66 c-27 63 -38 75 -51 56z"/>
<path d="M1217 353 c-4 -3 -7 -58 -7 -120 0 -104 2 -114 18 -111 11 2 18 14
20 35 3 30 5 31 40 26 98 -13 138 123 49 165 -21 10 -36 11 -57 3 -18 -6 -32
-6 -35 0 -7 11 -19 12 -28 2z m121 -45 c28 -28 1 -98 -36 -98 -25 0 -52 31
-52 60 0 33 17 50 50 50 14 0 31 -5 38 -12z"/>
<path d="M1790 347 c-54 -28 -64 -94 -21 -138 32 -31 64 -36 106 -17 46 21 26
44 -23 26 -27 -10 -34 -9 -51 7 -12 10 -21 22 -21 27 0 4 29 8 65 8 58 0 65 2
65 19 0 27 -39 69 -70 76 -14 3 -36 -1 -50 -8z m78 -49 c3 -15 -4 -18 -42 -18
-25 0 -46 4 -46 8 0 34 82 42 88 10z"/>
<path d="M1957 353 c-4 -3 -7 -44 -7 -90 0 -75 2 -84 18 -81 13 2 18 15 20 58
4 64 14 80 52 80 34 0 40 -14 40 -86 0 -42 3 -54 15 -54 13 0 15 12 13 71 -3
65 -6 74 -31 93 -24 18 -31 19 -60 8 -21 -8 -33 -9 -35 -2 -4 11 -16 13 -25 3z"/>
<path d="M2204 350 c-58 -23 -70 -95 -25 -141 35 -34 78 -38 112 -10 21 17 22
20 7 26 -9 4 -25 2 -37 -4 -27 -15 -37 -14 -55 5 -19 18 -21 65 -4 82 14 14
64 16 73 2 7 -11 35 -2 35 11 0 10 -54 39 -72 38 -7 0 -23 -4 -34 -9z"/>
<path d="M2384 350 c-47 -19 -70 -93 -41 -131 30 -39 87 -50 126 -23 30 22 13
39 -22 23 -32 -14 -77 1 -77 26 0 12 14 15 66 15 l66 0 -7 28 c-12 52 -65 81
-111 62z m64 -42 c21 -21 13 -28 -33 -28 -43 0 -58 14 -38 33 11 11 58 8 71
-5z"/>
</g>
</svg>
