<?xml version="1.0" standalone="no"?>
<!DOCTYPE svg PUBLIC "-//W3C//DTD SVG 20010904//EN"
 "http://www.w3.org/TR/2001/REC-SVG-20010904/DTD/svg10.dtd">
<svg version="1.0" xmlns="http://www.w3.org/2000/svg"
 width="258.000000pt" height="56.000000pt" viewBox="0 0 258.000000 56.000000"
 preserveAspectRatio="xMidYMid meet">

<g transform="translate(0.000000,56.000000) scale(0.100000,-0.100000)"
fill="#000000" stroke="none">
<path d="M400 522 c92 -18 85 -12 89 -85 1 -11 15 -24 36 -33 39 -16 39 -21 8
-134 -27 -100 -92 -184 -178 -228 -22 -12 -34 -21 -27 -22 26 0 89 40 129 83
53 58 81 113 99 196 20 97 19 105 -18 116 -31 9 -33 13 -32 52 1 41 -1 43 -35
53 -20 6 -63 12 -96 15 -57 5 -55 4 25 -13z"/>
<path d="M320 460 c0 -13 9 -24 24 -30 29 -11 46 -38 46 -74 0 -16 6 -26 15
-26 12 0 15 -16 15 -80 l0 -80 -50 0 -50 0 0 -45 0 -46 28 15 c42 22 99 86
122 138 25 57 38 138 21 138 -20 0 -51 39 -51 65 0 26 -3 27 -82 40 -34 5 -38
4 -38 -15z"/>
<path d="M320 365 c0 -28 4 -35 20 -35 23 0 28 38 8 58 -20 20 -28 14 -28 -23z"/>
</g>
</svg>
